<svg width="891" height="693" viewBox="0 0 891 693" fill="none" xmlns="http://www.w3.org/2000/svg">
<g clip-path="url(#clip0)">
<path opacity="0.25" d="M324 687.942C502.94 687.942 648 682.772 648 676.395C648 670.017 502.94 664.847 324 664.847C145.06 664.847 0 670.017 0 676.395C0 682.772 145.06 687.942 324 687.942Z" fill="#CD523B"/>
<path opacity="0.1" d="M238.822 20.9642C259.463 2.57022 291.864 -1.17858 321.355 0.286661C413.989 4.88894 497.609 49.6108 569.939 100.196C596.124 118.509 621.904 138.244 638.901 163.463C673.501 214.799 663.238 285.915 615.126 328.207C598.757 342.596 578.913 353.627 558.541 363.405C522.319 380.791 483.236 394.748 442.125 398.72C412.808 401.553 383.13 399.25 353.985 395.298C272.555 384.254 192.625 359.834 125.633 318.054C96.25 299.73 68.5553 276.948 56.4443 247.304C44.3332 217.66 52.0841 180.094 82.0868 162.548C94.4956 155.291 109.332 152.013 123.857 148.935C145.238 144.405 166.961 139.94 186.255 130.73C206.184 121.218 229.781 102.823 225.835 81.768C221.602 59.1771 218.205 39.3367 238.822 20.9642Z" fill="#EB5E2D"/>
<path opacity="0.1" d="M803.416 692.728C851.273 692.728 890.069 689.296 890.069 685.061C890.069 680.827 851.273 677.395 803.416 677.395C755.559 677.395 716.763 680.827 716.763 685.061C716.763 689.296 755.559 692.728 803.416 692.728Z" fill="#F95D26"/>
<path d="M451.939 260.894C450.528 258.163 443.07 241.192 443.07 241.192L430.573 208.81C430.573 208.81 421.704 195.155 421.704 192.619C421.704 190.083 405.579 179.939 405.579 179.939C405.579 179.939 392.477 176.038 391.469 175.648C390.462 175.257 374.941 170.123 374.941 170.123C374.941 170.123 368.83 162.086 367.959 164.185L367.958 164.19C367.926 164.137 367.894 164.091 367.862 164.037C366.613 161.704 365.823 159.153 365.532 156.523C365.499 156.289 365.471 156.042 365.441 155.799C369.466 153.07 372.766 149.401 375.053 145.11C377.341 140.819 378.548 136.034 378.569 131.171C378.566 129.891 378.48 128.612 378.311 127.343C378.422 127.274 378.538 127.213 378.658 127.16C378.909 127.051 378.845 126.963 378.661 126.87C378.724 126.837 378.787 126.802 378.851 126.775C379.184 126.63 378.962 126.52 378.639 126.39L378.658 126.38C379.113 126.183 378.538 126.052 378.076 125.843C378.051 125.708 378.028 125.572 378.001 125.438C378.103 125.181 378.166 124.91 378.186 124.634C378.227 124.655 378.264 124.677 378.308 124.695C378.42 124.193 378.417 123.671 378.3 123.17C378.271 123.271 378.236 123.372 378.195 123.469C378.223 123.015 378.13 122.561 377.923 122.154C377.717 121.748 377.405 121.405 377.021 121.16C376.998 121.14 376.973 121.118 376.949 121.098L377.804 112.346C390.409 111.751 392.62 90.3062 389.745 89.1149C386.87 87.9235 389.745 85.3422 389.745 80.1797C389.745 75.0171 380.236 69.2589 380.236 69.2589C380.236 69.2589 376.256 71.2445 370.064 61.3165C363.873 51.3886 341.096 49.8001 339.548 52.3813C338 54.9626 327.828 58.3382 314.56 62.1108C301.292 65.8834 303.724 81.5696 305.936 84.9451C307.757 87.7358 308.824 90.9513 309.031 94.2774C309.031 96.263 313.233 104.602 313.233 104.602C311.908 107.492 315.28 123.323 316.279 127.822C316.263 127.961 316.247 128.098 316.233 128.237C316.224 128.251 316.213 128.262 316.205 128.276C316.157 128.349 316.114 128.425 316.076 128.503C315.862 128.969 315.791 129.488 315.872 129.995C315.799 130.549 315.877 131.112 316.096 131.626C316.172 135.865 317.153 140.038 318.973 143.867C320.792 147.696 323.41 151.092 326.648 153.828C326.664 154.099 326.68 154.371 326.694 154.65C326.88 158.325 326.985 162.671 326.791 166.83C326.781 167.043 326.765 167.251 326.754 167.463C326.022 167.611 325.336 167.929 324.75 168.391C324.164 168.853 323.695 169.446 323.381 170.123C322.131 172.526 314.875 176.233 314.875 176.233C314.875 176.233 302.176 176.818 300.967 179.159C299.757 181.5 281.415 189.303 281.415 189.303C281.415 189.303 271.74 194.96 273.151 201.397C273.888 204.761 271.818 209.986 269.674 214.212C265.189 212.511 260.518 211.346 255.759 210.742L266.035 220.573C265.82 220.909 265.693 221.099 265.693 221.099L259.847 241.777C259.847 241.777 257.832 248.995 255.816 250.75C253.801 252.506 257.63 268.502 257.63 268.502C257.63 268.502 255.413 279.816 253.599 282.742C251.785 285.668 256.421 292.886 256.421 292.886L265.693 313.954L290.284 320.196C290.284 320.196 291.922 320.543 294.57 321.11C294.487 321.613 294.402 322.115 294.315 322.615C293.13 329.325 291.574 335.497 289.679 337.167C285.043 341.264 285.245 359.6 285.245 359.6L285.446 385.545C285.446 385.545 287.059 417.537 286.252 418.707C285.744 419.446 286.765 420.651 289.459 421.733C289.382 422.215 289.307 422.703 289.236 423.202C288.478 428.508 288.139 434.563 289.881 437.239C290.637 438.686 291.051 440.288 291.09 441.921C291.09 444.457 294.92 449.724 294.92 449.724C294.92 449.724 291.896 471.377 296.935 478.789C301.975 486.202 306.207 499.662 303.789 502.783C303.789 502.783 299.556 511.952 301.571 516.048C303.587 520.144 301.571 522.485 298.951 523.461C296.331 524.436 296.556 532.434 296.556 532.434L301.37 570.473C301.37 570.473 303.99 578.276 301.773 581.007C299.556 583.738 299.556 597.393 302.982 602.075C306.409 606.756 298.145 615.34 298.145 615.34C298.145 615.34 293.106 622.557 301.168 624.898C301.168 624.898 302.781 625.288 299.757 628.409C296.734 631.531 296.129 635.432 298.145 636.797C298.563 637.048 299 637.265 299.452 637.447C299.377 637.909 299.296 638.388 299.201 638.896C298.427 642.969 296.968 648.275 294.315 650.843C289.174 656.11 284.737 662.022 281.117 668.43C278.351 673.674 277.142 678.582 280.205 680.884C287.462 686.346 296.734 688.101 302.176 685.956C307.618 683.81 315.278 677.177 315.278 677.177L317.092 669.57C317.092 669.57 315.882 664.888 321.929 663.132C327.976 661.377 333.62 655.134 333.62 655.134V645.022C335.084 644.185 336.498 643.263 337.853 642.26C337.853 642.26 340.675 632.311 337.853 628.995C335.031 625.678 334.023 624.508 337.652 622.362C341.28 620.216 341.771 615.535 339.111 611.438C336.442 607.342 332.209 601.295 335.837 592.711C339.466 584.128 340.796 557.793 340.796 557.793C340.796 557.793 339.103 539.847 340.796 535.75C342.489 531.654 338.861 523.461 338.861 523.461C338.861 523.461 340.07 513.317 342.288 508.635C344.505 503.954 346.319 479.18 346.319 479.18C346.319 479.18 350.35 468.646 350.35 461.818C350.35 454.991 344.102 438.605 353.374 434.313C353.374 434.313 357.405 437.824 355.792 451.869C355.792 451.869 360.428 468.255 360.428 473.327C360.428 478.399 363.855 496.736 363.855 496.736C363.855 496.736 364.258 502.588 365.669 504.734C367.08 506.88 365.669 512.732 365.669 512.732C365.669 512.732 370.91 517.609 369.499 520.73C368.088 523.851 369.741 530.889 369.741 530.889L368.491 574.57C368.491 574.57 364.863 593.297 373.329 604.611C373.329 604.611 370.305 621.192 368.491 622.362C366.677 623.533 375.143 633.677 375.143 633.677C375.143 633.677 372.796 640.248 377.561 640.57V651.428C379.216 654.351 381.485 656.881 384.213 658.841C388.647 661.962 386.833 672.691 386.833 672.691C386.833 672.691 392.477 686.346 407.393 683.42C422.309 680.494 424.324 679.128 423.518 674.251C423.228 672.472 422.583 669.297 421.656 665.692C420.051 659.426 417.592 651.865 414.649 648.135C410.013 642.26 406.184 629.97 406.184 629.97C406.184 629.97 404.37 625.874 406.184 624.508C407.998 623.143 407.191 620.607 407.191 620.607C407.191 620.607 408.957 615.535 407.369 612.414C405.78 609.293 410.417 602.855 410.417 602.855L409.006 572.814L410.417 529.118C410.417 529.118 404.168 521.9 406.788 517.609C409.409 513.317 403.765 507.27 403.765 507.27C403.765 507.27 403.16 507.075 404.773 502.198C405.738 499.324 405.594 496.193 404.37 493.42C404.37 493.42 400.943 481.325 406.99 472.157C406.99 472.157 409.61 460.063 410.417 453.82C410.973 449.482 414.456 433.275 416.528 423.795C416.645 423.259 416.757 422.746 416.865 422.256C419.85 422.419 422.107 422.609 422.107 422.609C422.107 422.609 417.471 390.422 422.107 383.789C426.743 377.157 418.479 326.438 418.479 326.438C418.479 326.438 416.504 317.574 415.286 308.531C415.217 308.015 415.153 307.501 415.089 306.986C418.832 306.687 422.588 306.603 426.34 306.736C436.015 307.321 445.489 303.615 445.69 299.909C445.892 296.202 451.133 281.572 451.939 278.256C452.745 274.939 453.35 263.625 451.939 260.894Z" fill="url(#paint0_linear)"/>
<path d="M334.326 637.21V655.273C334.326 655.273 328.887 661.488 323.061 663.236C317.234 664.984 318.399 669.645 318.399 669.645L316.651 677.22C316.651 677.22 309.271 683.823 304.027 685.96C298.783 688.096 289.849 686.348 282.857 680.91C279.905 678.618 281.07 673.732 283.735 668.511C287.207 662.153 291.481 656.268 296.452 651C299.008 648.444 300.415 643.161 301.16 639.106C301.712 636.068 301.891 633.714 301.891 633.714L334.326 637.21Z" fill="#4C495A"/>
<path opacity="0.1" d="M334.326 650.689V655.273C334.326 655.273 328.887 661.488 323.061 663.236C317.234 664.984 318.399 669.645 318.399 669.645L316.651 677.22C316.651 677.22 309.271 683.823 304.027 685.96C298.783 688.096 289.849 686.348 282.857 680.91C279.905 678.618 281.07 673.731 283.735 668.511C283.61 673.996 285.234 680.156 293.151 679.939C301.695 679.668 309.929 676.673 316.651 671.393C316.651 671.393 316.457 658.574 325.391 655.661C328.657 654.583 331.688 652.896 334.326 650.689Z" fill="black"/>
<path d="M405.411 683.435C391.038 686.348 385.6 672.753 385.6 672.753C385.6 672.753 387.348 662.07 383.075 658.963C380.433 656.992 378.247 654.475 376.666 651.582V633.714L394.146 621.284L403.608 629.659L404.245 630.218C404.245 630.218 407.935 642.454 412.403 648.304C415.238 652.017 417.608 659.545 419.154 665.784C420.047 669.373 420.669 672.535 420.948 674.306C421.725 679.162 419.783 680.521 405.411 683.435Z" fill="#4C495A"/>
<path opacity="0.1" d="M405.411 683.435C391.038 686.348 385.6 672.753 385.6 672.753C385.6 672.753 387.348 662.07 383.075 658.963C380.433 656.992 378.247 654.475 376.666 651.582V644.66C379.439 647.589 384.668 653.26 385.794 655.661C387.348 658.963 387.542 671.005 394.728 673.141C401.915 675.277 415.899 677.22 417.064 671.781C417.548 669.715 418.249 667.704 419.154 665.784C420.047 669.373 420.669 672.535 420.948 674.306C421.725 679.162 419.783 680.521 405.411 683.435Z" fill="black"/>
<path opacity="0.1" d="M301.891 633.714L334.326 637.21V646.758C330.666 648.925 325.423 651.225 322.478 648.863C318.128 645.383 305.192 640.962 301.16 639.106C301.712 636.068 301.891 633.714 301.891 633.714Z" fill="black"/>
<path opacity="0.1" d="M404.245 631.772C399.778 630.218 391.815 637.016 381.327 641.289C379.869 641.975 378.277 642.331 376.666 642.33V633.714L394.146 621.284L403.608 629.659C403.754 630.381 403.967 631.089 404.245 631.772Z" fill="black"/>
<path d="M415.704 417.934C415.704 417.934 415.091 420.793 414.213 424.941C412.216 434.381 408.86 450.517 408.324 454.836C407.547 461.051 405.022 473.093 405.022 473.093C399.196 482.221 402.497 494.263 402.497 494.263C403.678 497.034 403.816 500.138 402.886 503.003C401.332 507.859 401.915 508.053 401.915 508.053C401.915 508.053 407.353 514.074 404.828 518.346C402.303 522.619 408.324 529.806 408.324 529.806L406.964 573.311L408.324 603.221C408.324 603.221 403.857 609.631 405.387 612.738C406.918 615.846 405.216 620.895 405.216 620.895C405.216 620.895 405.993 623.42 404.245 624.78C402.497 626.139 404.245 630.218 404.245 630.218C399.778 628.664 391.815 635.462 381.327 639.735C370.839 644.008 374.335 633.908 374.335 633.908C374.335 633.908 366.178 623.809 367.926 622.643C369.674 621.478 372.587 604.969 372.587 604.969C364.43 593.704 367.926 575.059 367.926 575.059L369.13 531.569C369.13 531.569 367.537 524.562 368.897 521.454C370.257 518.347 365.207 513.491 365.207 513.491C365.207 513.491 366.566 507.664 365.207 505.528C363.847 503.391 363.459 497.565 363.459 497.565C363.459 497.565 360.157 479.308 360.157 474.258C360.157 469.208 355.69 452.894 355.69 452.894C357.244 438.91 353.359 435.414 353.359 435.414C344.425 439.687 350.446 456.001 350.446 462.799C350.446 469.597 346.562 480.085 346.562 480.085C346.562 480.085 344.814 504.751 342.677 509.412C340.541 514.074 339.375 524.173 339.375 524.173C339.375 524.173 342.871 532.33 341.24 536.409C339.608 540.488 341.24 558.356 341.24 558.356C341.24 558.356 339.958 584.576 336.462 593.122C332.966 601.668 337.045 607.688 339.616 611.767C342.18 615.846 341.706 620.507 338.21 622.643C334.714 624.78 335.685 625.945 338.404 629.247C341.123 632.549 338.404 642.454 338.404 642.454C338.404 642.454 327.334 651.194 322.478 647.31C317.623 643.425 302.085 638.375 300.143 637.016C298.2 635.656 298.783 631.772 301.696 628.664C304.61 625.557 303.056 625.168 303.056 625.168C295.287 622.838 300.143 615.651 300.143 615.651C300.143 615.651 308.106 607.106 304.804 602.444C301.502 597.783 301.502 584.188 303.639 581.469C305.775 578.749 303.25 570.98 303.25 570.98L298.612 533.107C298.612 533.107 298.395 525.144 300.919 524.173C303.444 523.202 305.387 520.871 303.444 516.793C301.502 512.714 305.581 503.586 305.581 503.586C307.911 500.478 303.833 487.077 298.977 479.696C294.122 472.316 297.035 450.757 297.035 450.757C297.035 450.757 293.345 445.513 293.345 442.989C293.308 441.367 292.91 439.775 292.179 438.327C290.501 435.663 290.828 429.634 291.558 424.351C292.265 419.239 293.345 414.826 293.345 414.826L415.704 417.934Z" fill="#5F5D7E"/>
<path d="M377.637 197.881L339.375 206.815C339.375 206.815 320.536 190.889 325.197 182.343C326.798 179.407 327.505 174.396 327.745 169.097C327.932 164.957 327.831 160.629 327.652 156.97C327.38 151.68 326.945 147.772 326.945 147.772C326.945 147.772 366.178 125.631 364.818 147.772C364.542 151.459 364.628 155.164 365.075 158.835C365.352 161.446 366.114 163.983 367.32 166.316C369.417 170.053 372.005 170.107 372.005 170.107L377.637 197.881Z" fill="#FDC2CC"/>
<path opacity="0.1" d="M365.075 158.835C359.545 162.801 352.834 164.776 346.038 164.438C339.241 164.099 332.76 161.467 327.652 156.97C327.38 151.68 326.945 147.772 326.945 147.772C326.945 147.772 366.178 125.631 364.818 147.772C364.542 151.459 364.628 155.164 365.075 158.835Z" fill="black"/>
<path d="M347.533 163.698C364.159 163.698 377.637 150.22 377.637 133.594C377.637 116.968 364.159 103.49 347.533 103.49C330.906 103.49 317.428 116.968 317.428 133.594C317.428 150.22 330.906 163.698 347.533 163.698Z" fill="#FDC2CC"/>
<path opacity="0.1" d="M377.637 197.881L339.375 206.815C339.375 206.815 320.536 190.889 325.197 182.343C326.798 179.407 327.505 174.396 327.745 169.097C328.59 173.705 331.064 177.855 334.714 180.79C343.454 186.616 342.094 193.802 342.094 193.802L357.826 193.22C356.855 186.81 362.682 183.314 364.624 182.538C366.566 181.761 365.595 178.265 365.595 178.265L367.32 166.316C369.417 170.053 372.005 170.107 372.005 170.107L377.637 197.881Z" fill="black"/>
<path opacity="0.1" d="M415.704 417.934C415.704 417.934 415.091 420.793 414.213 424.941C409.987 424.716 404.401 424.553 401.915 425.12C397.642 426.091 380.55 426.48 380.55 426.48L338.21 427.979V426.674C333.34 426.713 328.476 427.037 323.643 427.645C316.457 428.616 305.192 427.257 298.006 426.091C295.794 425.774 293.629 425.19 291.558 424.351C292.265 419.239 293.345 414.826 293.345 414.826L415.704 417.934Z" fill="black"/>
<path d="M412.403 294.603C411.789 298.231 412.239 304.244 413.016 310.18C414.189 319.184 416.093 328.009 416.093 328.009C416.093 328.009 424.056 378.507 419.589 385.111C415.122 391.714 419.589 423.761 419.589 423.761C419.589 423.761 406.188 422.595 401.915 423.566C397.642 424.538 380.55 424.926 380.55 424.926L338.21 426.425V425.12C333.34 425.159 328.476 425.484 323.643 426.091C316.457 427.062 305.192 425.703 298.006 424.537C290.82 423.372 287.907 421.041 288.684 419.876C289.46 418.711 287.907 386.859 287.907 386.859L287.712 361.027C287.712 361.027 287.518 342.77 291.985 338.692C293.811 337.029 295.31 330.884 296.452 324.203C298.092 314.53 298.977 303.732 298.977 303.732L269.456 224.684L268.873 223.13C268.873 223.13 277.419 209.923 276.059 203.513C274.7 197.104 284.022 191.472 284.022 191.472C284.022 191.472 301.696 183.703 302.862 181.372C304.027 179.042 316.263 178.459 316.263 178.459C316.263 178.459 323.255 174.769 324.459 172.376C324.752 171.708 325.2 171.119 325.766 170.658C326.333 170.197 327 169.878 327.714 169.727C328.537 174.391 331.024 178.597 334.714 181.567C343.454 187.393 342.094 194.579 342.094 194.579L357.826 193.997C356.855 187.587 362.682 184.091 364.624 183.314C366.566 182.538 365.595 179.042 365.595 179.042L367.413 166.464C368.252 164.374 374.141 172.376 374.141 172.376C374.141 172.376 389.096 177.488 390.067 177.876C391.038 178.265 403.663 182.149 403.663 182.149C403.663 182.149 419.2 192.249 419.2 194.774C419.2 197.298 427.746 210.894 427.746 210.894C427.746 210.894 427.645 211.438 427.459 212.432C425.485 223.138 413.824 286.252 412.403 294.603Z" fill="#FF6347"/>
<path d="M350.252 263.139C350.252 263.139 316.651 254.205 313.35 252.069C310.048 249.932 290.626 262.363 314.321 279.26C314.321 279.26 343.295 285.281 351.046 279.26C358.797 273.239 350.252 263.139 350.252 263.139Z" fill="#FDC2CC"/>
<path opacity="0.1" d="M422.891 209.923L426.969 210.117L439.011 242.358C439.011 242.358 446.197 259.255 447.557 261.974C448.916 264.693 448.334 275.958 447.557 279.26C446.78 282.562 441.73 297.128 441.536 300.818C441.342 304.509 432.213 308.199 422.891 307.616C413.568 307.034 391.815 309.947 391.815 309.947C391.815 309.947 368.584 307.519 354.33 314.802C354.33 314.802 345.202 295.963 346.173 260.809C346.173 260.809 362.294 259.838 366.372 261.392C370.451 262.945 390.261 267.412 392.786 265.082C395.311 262.751 406.77 269.355 406.77 269.355C407.353 268.074 407.655 266.683 407.655 265.276C407.655 263.869 407.353 262.478 406.77 261.197C404.828 256.536 401.526 241.969 405.799 237.308C410.072 232.647 422.891 209.923 422.891 209.923Z" fill="black"/>
<path opacity="0.1" d="M413.016 310.18C403.375 310.832 392.592 312.277 392.592 312.277C392.592 312.277 369.363 309.846 355.107 317.133C355.107 317.133 345.979 298.294 346.95 263.139C346.95 263.139 363.07 262.168 367.149 263.722C371.228 265.276 391.038 269.743 393.563 267.412C396.088 265.082 407.547 271.685 407.547 271.685C408.13 270.405 408.432 269.014 408.432 267.607C408.432 266.199 408.13 264.809 407.547 263.528C405.605 258.867 402.303 244.3 406.576 239.639C410.849 234.977 423.667 212.253 423.667 212.253L427.459 212.432C425.485 223.138 413.824 286.252 412.403 294.603C411.789 298.231 412.239 304.244 413.016 310.18Z" fill="black"/>
<path d="M423.667 210.7L427.746 210.894L439.788 243.135C439.788 243.135 446.974 260.032 448.334 262.751C449.693 265.47 449.11 276.735 448.334 280.037C447.557 283.339 442.507 297.905 442.313 301.595C442.119 305.286 432.99 308.976 423.667 308.393C414.345 307.81 392.592 310.724 392.592 310.724C392.592 310.724 369.361 308.296 355.107 315.579C355.107 315.579 345.979 296.74 346.95 261.586C346.95 261.586 363.07 260.615 367.149 262.168C371.228 263.722 391.038 268.189 393.563 265.859C396.088 263.528 407.547 270.131 407.547 270.131C408.13 268.851 408.432 267.46 408.432 266.053C408.432 264.646 408.13 263.255 407.547 261.974C405.605 257.313 402.303 242.746 406.576 238.085C410.849 233.424 423.667 210.7 423.667 210.7Z" fill="#FF6347"/>
<path d="M382.634 282.04L387.48 285.04L414.486 241.424L409.64 238.424L382.634 282.04Z" fill="#DFE6F5"/>
<path d="M428.334 235.517C433.107 227.809 432.594 218.847 427.187 215.499C421.78 212.151 413.528 215.686 408.756 223.395C403.983 231.103 404.496 240.065 409.903 243.413C415.309 246.761 423.561 243.226 428.334 235.517Z" fill="#DFE6F5"/>
<path opacity="0.1" d="M425.572 233.807C428.998 228.274 428.629 221.841 424.748 219.438C420.867 217.035 414.944 219.572 411.518 225.105C408.092 230.638 408.461 237.072 412.342 239.474C416.223 241.877 422.146 239.34 425.572 233.807Z" fill="black"/>
<path d="M368.831 304.332L373.677 307.333L390.481 280.194L385.635 277.193L368.831 304.332Z" fill="#53526B"/>
<path d="M340.346 306.257L352.194 302.955C352.194 302.955 410.655 304.509 391.038 280.425C391.038 280.425 380.744 270.52 359.186 278.483C337.627 286.446 331.606 287.417 331.606 287.417L340.346 306.257Z" fill="#FDC2CC"/>
<path opacity="0.1" d="M331.606 204.679C332.894 204.679 333.937 203.635 333.937 202.348C333.937 201.061 332.894 200.018 331.606 200.018C330.319 200.018 329.276 201.061 329.276 202.348C329.276 203.635 330.319 204.679 331.606 204.679Z" fill="black"/>
<path opacity="0.1" d="M371.616 203.319C372.903 203.319 373.947 202.276 373.947 200.989C373.947 199.701 372.903 198.658 371.616 198.658C370.329 198.658 369.285 199.701 369.285 200.989C369.285 202.276 370.329 203.319 371.616 203.319Z" fill="black"/>
<path d="M331.606 203.902C332.894 203.902 333.937 202.858 333.937 201.571C333.937 200.284 332.894 199.241 331.606 199.241C330.319 199.241 329.276 200.284 329.276 201.571C329.276 202.858 330.319 203.902 331.606 203.902Z" fill="white"/>
<path opacity="0.1" d="M334.908 236.92C336.195 236.92 337.239 235.876 337.239 234.589C337.239 233.302 336.195 232.258 334.908 232.258C333.621 232.258 332.578 233.302 332.578 234.589C332.578 235.876 333.621 236.92 334.908 236.92Z" fill="black"/>
<path opacity="0.1" d="M372.781 234.589C374.069 234.589 375.112 233.545 375.112 232.258C375.112 230.971 374.069 229.928 372.781 229.928C371.494 229.928 370.451 230.971 370.451 232.258C370.451 233.545 371.494 234.589 372.781 234.589Z" fill="black"/>
<path d="M334.908 236.143C336.195 236.143 337.239 235.099 337.239 233.812C337.239 232.525 336.195 231.481 334.908 231.481C333.621 231.481 332.578 232.525 332.578 233.812C332.578 235.099 333.621 236.143 334.908 236.143Z" fill="white"/>
<path opacity="0.1" d="M371.81 347.056C373.098 347.056 374.141 346.013 374.141 344.726C374.141 343.438 373.098 342.395 371.81 342.395C370.523 342.395 369.48 343.438 369.48 344.726C369.48 346.013 370.523 347.056 371.81 347.056Z" fill="black"/>
<path opacity="0.1" d="M341.137 347.056C342.424 347.056 343.467 346.013 343.467 344.726C343.467 343.438 342.424 342.395 341.137 342.395C339.85 342.395 338.806 343.438 338.806 344.726C338.806 346.013 339.85 347.056 341.137 347.056Z" fill="black"/>
<path d="M371.81 346.279C373.098 346.279 374.141 345.236 374.141 343.949C374.141 342.662 373.098 341.618 371.81 341.618C370.523 341.618 369.48 342.662 369.48 343.949C369.48 345.236 370.523 346.279 371.81 346.279Z" fill="white"/>
<path opacity="0.1" d="M343.467 386.082C344.755 386.082 345.798 385.038 345.798 383.751C345.798 382.464 344.755 381.42 343.467 381.42C342.18 381.42 341.137 382.464 341.137 383.751C341.137 385.038 342.18 386.082 343.467 386.082Z" fill="black"/>
<path opacity="0.1" d="M372.781 383.751C374.069 383.751 375.112 382.708 375.112 381.42C375.112 380.133 374.069 379.09 372.781 379.09C371.494 379.09 370.451 380.133 370.451 381.42C370.451 382.708 371.494 383.751 372.781 383.751Z" fill="black"/>
<path d="M343.467 385.305C344.755 385.305 345.798 384.261 345.798 382.974C345.798 381.687 344.755 380.643 343.467 380.643C342.18 380.643 341.137 381.687 341.137 382.974C341.137 384.261 342.18 385.305 343.467 385.305Z" fill="white"/>
<path d="M341.137 346.279C342.424 346.279 343.467 345.236 343.467 343.949C343.467 342.662 342.424 341.618 341.137 341.618C339.85 341.618 338.806 342.662 338.806 343.949C338.806 345.236 339.85 346.279 341.137 346.279Z" fill="white"/>
<path d="M372.781 382.974C374.069 382.974 375.112 381.931 375.112 380.643C375.112 379.356 374.069 378.313 372.781 378.313C371.494 378.313 370.451 379.356 370.451 380.643C370.451 381.931 371.494 382.974 372.781 382.974Z" fill="white"/>
<path d="M371.616 202.542C372.903 202.542 373.947 201.499 373.947 200.212C373.947 198.925 372.903 197.881 371.616 197.881C370.329 197.881 369.285 198.925 369.285 200.212C369.285 201.499 370.329 202.542 371.616 202.542Z" fill="white"/>
<path d="M372.781 233.812C374.069 233.812 375.112 232.769 375.112 231.481C375.112 230.194 374.069 229.151 372.781 229.151C371.494 229.151 370.451 230.194 370.451 231.481C370.451 232.769 371.494 233.812 372.781 233.812Z" fill="white"/>
<path opacity="0.1" d="M376.277 313.249C376.277 313.249 376.666 366.465 377.831 375.982C377.831 375.982 378.254 315.757 376.277 313.249Z" fill="black"/>
<path opacity="0.1" d="M386.183 337.915C385.382 337.915 402.109 400.26 402.886 404.727C403.663 409.194 390.844 337.915 386.183 337.915Z" fill="black"/>
<path opacity="0.1" d="M399.39 327.815C399.39 328.398 408.712 361.61 413.374 363.358C418.035 365.106 399.39 327.815 399.39 327.815Z" fill="black"/>
<path opacity="0.1" d="M436.098 263.14C436.098 263.14 416.287 264.023 415.704 266.883C415.122 269.743 436.098 263.14 436.098 263.14Z" fill="black"/>
<path opacity="0.1" d="M401.138 516.404C401.138 516.404 386.96 522.425 389.096 522.814C391.232 523.202 401.138 516.404 401.138 516.404Z" fill="black"/>
<path opacity="0.1" d="M371.81 507.47C371.258 506.228 381.327 512.52 381.327 513.297C381.327 514.074 372.587 509.218 371.81 507.47Z" fill="black"/>
<path opacity="0.1" d="M385.017 527.863C385.017 527.863 396.088 527.305 396.865 531.566C397.642 535.826 385.017 527.863 385.017 527.863Z" fill="black"/>
<path opacity="0.1" d="M305.387 527.839C305.387 527.839 317.428 525.485 318.399 527.839C319.371 530.194 305.387 527.839 305.387 527.839Z" fill="black"/>
<path opacity="0.1" d="M309.854 601.085C309.854 601.085 310.643 610.99 307.724 613.321C304.804 615.651 309.854 601.085 309.854 601.085Z" fill="black"/>
<path opacity="0.1" d="M308.383 622.061C312.184 622.449 332.189 618.953 331.995 622.061C331.801 625.168 308.383 622.061 308.383 622.061Z" fill="black"/>
<path opacity="0.1" d="M400.167 610.019C400.167 610.019 393.344 608.97 395.007 613.573L400.167 610.019Z" fill="black"/>
<path opacity="0.1" d="M273.34 222.353H269.65L264.017 242.94C264.017 242.94 262.075 250.127 260.133 251.875C258.191 253.623 261.881 269.549 261.881 269.549C261.881 269.549 259.745 280.814 257.997 283.727C256.249 286.64 260.716 293.826 260.716 293.826L269.65 314.802L293.345 321.017C293.345 321.017 335.102 330.146 337.045 331.505C338.987 332.865 340.735 330.923 342.094 318.298C343.454 305.674 347.144 281.202 350.058 280.037C350.058 280.037 326.751 282.562 324.809 282.173C322.867 281.785 313.544 282.367 313.544 282.367C313.544 282.367 301.308 281.591 299.366 282.756C297.424 283.921 301.891 277.115 301.891 277.115C302.708 273.998 302.708 270.723 301.891 267.607C300.531 262.363 299.754 202.931 273.34 222.353Z" fill="black"/>
<path opacity="0.1" d="M349.281 282.367C346.367 283.533 342.677 308.005 341.318 320.629C339.958 333.253 338.21 335.196 336.268 333.836C334.691 332.733 306.855 326.502 296.452 324.203C298.092 314.53 298.977 303.732 298.977 303.732L269.456 224.684H272.563C298.977 205.261 299.754 264.693 301.114 269.937C301.931 273.054 301.931 276.329 301.114 279.446C301.114 279.446 296.647 286.252 298.589 285.087C300.531 283.921 312.767 284.698 312.767 284.698C312.767 284.698 322.09 284.115 324.032 284.504C325.974 284.892 349.281 282.367 349.281 282.367Z" fill="black"/>
<path d="M272.563 223.13H268.873L263.241 243.717C263.241 243.717 261.298 250.903 259.356 252.651C257.414 254.399 261.104 270.326 261.104 270.326C261.104 270.326 258.968 281.59 257.22 284.504C255.472 287.417 259.939 294.603 259.939 294.603L268.873 315.579L292.568 321.794C292.568 321.794 334.326 330.923 336.268 332.282C338.21 333.642 339.958 331.7 341.318 319.075C342.677 306.451 346.367 281.979 349.281 280.814C349.281 280.814 325.974 283.339 324.032 282.95C322.09 282.562 312.767 283.144 312.767 283.144C312.767 283.144 300.531 282.367 298.589 283.533C296.647 284.698 301.114 277.892 301.114 277.892C301.932 274.775 301.932 271.5 301.114 268.383C299.754 263.139 298.977 203.708 272.563 223.13Z" fill="#FF6347"/>
<path opacity="0.1" d="M285.188 293.438C285.188 293.438 274.505 313.637 272.563 311.306C270.621 308.976 285.188 293.438 285.188 293.438Z" fill="black"/>
<path opacity="0.1" d="M274.117 281.936C274.117 281.936 264.212 290.136 268.873 292.273C273.534 294.409 274.117 281.936 274.117 281.936Z" fill="black"/>
<path opacity="0.1" d="M283.44 271.879C284.216 272.074 297.812 274.774 298.006 275.949C298.2 277.123 283.44 271.879 283.44 271.879Z" fill="black"/>
<path opacity="0.1" d="M377.722 129.601C377.3 129.749 376.94 130.035 376.699 130.412C376.458 130.79 376.351 131.237 376.394 131.683C375.602 132.382 374.491 131.558 373.846 130.665C373.193 129.779 372.455 128.684 371.469 128.808C371 128.958 370.545 129.147 370.109 129.375C368.555 129.872 367.242 128.047 366.372 126.446C364.857 123.642 363.342 120.84 361.827 118.041C358.79 119.804 355.201 117.955 352.186 116.129C349.172 114.304 345.583 112.447 342.537 114.21C338.07 116.79 337.907 125.39 333.277 127.511C331.785 128.194 330.053 128.047 328.67 128.987C327.302 129.919 326.564 131.714 325.951 133.431C325.724 134.408 325.19 135.287 324.428 135.94C323.944 136.193 323.405 136.324 322.859 136.321C321.486 136.554 320.074 136.356 318.819 135.754C318.161 135.34 317.663 134.714 317.409 133.98C317.155 133.245 317.159 132.446 317.421 131.714C317.457 131.636 317.499 131.561 317.545 131.488C318.042 130.887 318.489 130.245 318.881 129.57C319.347 128.334 318.679 126.897 318.827 125.561C319.068 123.277 321.484 122.073 321.895 119.827C322.066 118.949 321.888 118.009 322.051 117.124C322.074 117.008 322.105 116.894 322.144 116.782L320.722 117.761C322.315 115.904 323.115 113.325 324.28 111.072C325.575 108.605 327.356 106.426 329.517 104.668C331.677 102.909 334.172 101.607 336.85 100.84C341.916 99.3642 347.268 99.7681 352.38 101.019C357.241 102.23 361.898 104.149 366.201 106.713C367.738 107.538 369.104 108.648 370.225 109.984C371.165 111.37 371.964 112.845 372.611 114.389C374.118 117.512 378.235 120.402 374.957 120.837C372.23 121.202 374.716 123.114 376.145 124.403C376.468 124.656 376.746 124.961 376.969 125.304C377.206 125.796 377.315 126.339 377.285 126.884C377.255 127.429 377.088 127.957 376.798 128.42C376.246 129.119 378.484 129.259 377.722 129.601Z" fill="black"/>
<path d="M377.722 128.824C377.3 128.972 376.94 129.258 376.699 129.635C376.458 130.013 376.351 130.46 376.394 130.906C375.602 131.605 374.491 130.781 373.846 129.888C373.193 129.002 372.455 127.907 371.469 128.031C371 128.181 370.545 128.37 370.109 128.598C368.555 129.096 367.242 127.27 366.372 125.669C364.857 122.865 363.342 120.063 361.827 117.264C358.79 119.027 355.201 117.178 352.186 115.352C349.172 113.527 345.583 111.67 342.537 113.434C338.07 116.013 337.907 124.613 333.277 126.734C331.785 127.417 330.053 127.27 328.67 128.21C327.302 129.142 326.564 130.937 325.951 132.654C325.724 133.631 325.19 134.51 324.428 135.163C323.944 135.416 323.405 135.547 322.859 135.544C321.486 135.777 320.074 135.579 318.819 134.977C318.161 134.563 317.663 133.937 317.409 133.203C317.155 132.468 317.159 131.669 317.42 130.937C317.457 130.859 317.499 130.784 317.545 130.711C318.042 130.11 318.489 129.468 318.881 128.793C319.347 127.557 318.679 126.12 318.827 124.784C319.068 122.5 321.484 121.296 321.895 119.05C322.066 118.173 321.888 117.233 322.051 116.347C322.074 116.231 322.105 116.117 322.144 116.005L320.722 116.984C322.315 115.127 323.115 112.548 324.28 110.295C325.575 107.828 327.356 105.65 329.517 103.891C331.677 102.132 334.172 100.83 336.85 100.063C341.916 98.5872 347.268 98.9912 352.38 100.242C357.241 101.453 361.898 103.372 366.201 105.937C367.738 106.761 369.104 107.871 370.225 109.207C371.165 110.593 371.964 112.068 372.611 113.612C374.118 116.735 378.235 119.625 374.957 120.06C372.23 120.425 374.716 122.337 376.145 123.626C376.468 123.879 376.746 124.184 376.969 124.527C377.206 125.019 377.315 125.562 377.285 126.107C377.255 126.652 377.088 127.18 376.798 127.643C376.246 128.342 378.484 128.482 377.722 128.824Z" fill="#865A61"/>
<path opacity="0.1" d="M376.145 123.626L375.835 126.897C375.835 126.897 343.236 85.5822 317.879 132.234C317.879 132.234 317.755 131.667 317.545 130.711C318.042 130.11 318.489 129.468 318.881 128.793C319.347 127.557 318.679 126.12 318.827 124.784C319.068 122.5 321.484 121.296 321.895 119.05C322.066 118.173 321.888 117.233 322.051 116.347C322.074 116.231 322.105 116.117 322.144 116.005L320.722 116.984C322.315 115.127 323.115 112.548 324.281 110.295C325.575 107.828 327.356 105.65 329.517 103.891C331.678 102.132 334.172 100.83 336.85 100.063C341.916 98.5872 347.268 98.9912 352.38 100.242C357.241 101.453 361.898 103.372 366.201 105.937C367.738 106.761 369.104 107.871 370.225 109.207C371.165 110.593 371.964 112.068 372.611 113.612C374.118 116.735 378.235 119.625 374.957 120.06C372.23 120.426 374.716 122.337 376.145 123.626Z" fill="black"/>
<g opacity="0.1">
<path opacity="0.1" d="M376.949 128.401C376.788 128.581 376.672 128.797 376.607 129.03C376.543 129.263 376.534 129.508 376.58 129.745C375.787 130.444 374.676 129.621 374.031 128.727C373.379 127.842 372.641 126.746 371.654 126.871C371.186 127.02 370.731 127.21 370.295 127.438C368.741 127.935 367.428 126.109 366.558 124.509C365.043 121.704 363.528 118.902 362.013 116.103C358.975 117.867 355.386 116.018 352.372 114.192C349.358 112.366 345.768 110.51 342.723 112.273C338.256 114.852 338.093 123.452 333.462 125.573C331.971 126.257 330.238 126.109 328.856 127.049C327.488 127.982 326.75 129.776 326.136 131.493C325.909 132.471 325.376 133.35 324.614 134.003C324.13 134.256 323.591 134.386 323.044 134.383C321.672 134.617 320.26 134.418 319.005 133.816C318.252 133.317 317.712 132.556 317.491 131.68C317.336 132.376 317.399 133.103 317.669 133.762C317.94 134.422 318.406 134.983 319.005 135.37C320.26 135.972 321.672 136.17 323.044 135.937C323.591 135.94 324.13 135.809 324.614 135.556C325.376 134.904 325.909 134.024 326.136 133.047C326.75 131.33 327.488 129.535 328.856 128.603C330.238 127.663 331.971 127.811 333.462 127.127C338.093 125.006 338.256 116.406 342.723 113.827C345.768 112.063 349.358 113.92 352.372 115.746C355.386 117.571 358.975 119.42 362.013 117.657C363.528 120.454 365.043 123.256 366.558 126.063C367.428 127.663 368.741 129.489 370.295 128.992C370.731 128.764 371.186 128.574 371.654 128.424C372.641 128.3 373.379 129.396 374.031 130.281C374.676 131.175 375.787 131.998 376.58 131.299C376.536 130.853 376.644 130.406 376.885 130.029C377.126 129.651 377.486 129.366 377.908 129.217C378.514 128.945 377.226 128.8 376.949 128.401Z" fill="black"/>
<path opacity="0.1" d="M374.409 120.639C374.644 120.544 374.891 120.482 375.142 120.454C376.588 120.262 376.594 119.592 376.022 118.636C375.75 118.783 375.45 118.873 375.142 118.9C373.583 119.109 373.731 119.824 374.409 120.639Z" fill="black"/>
<path opacity="0.1" d="M377.385 127.146C377.493 126.645 377.491 126.127 377.377 125.627C377.308 125.937 377.174 126.228 376.983 126.482C376.74 126.791 377.04 126.99 377.385 127.146Z" fill="black"/>
<path opacity="0.1" d="M319.057 124.908C319.041 124.997 319.022 125.085 319.012 125.177C318.981 125.877 319.032 126.578 319.164 127.266C319.256 126.479 319.22 125.683 319.057 124.908Z" fill="black"/>
<path opacity="0.1" d="M322.211 115.43C321.846 116.123 321.409 116.775 320.908 117.377L322.162 116.514C322.156 116.152 322.172 115.79 322.211 115.43Z" fill="black"/>
</g>
<path d="M317.877 131.457C317.877 131.457 313.19 110.502 314.681 107.141C314.681 107.141 310.633 98.8379 310.633 96.861C310.436 93.5621 309.41 90.3661 307.65 87.5694C305.519 84.2086 303.175 68.5907 315.96 64.8346C328.744 61.0784 338.546 57.7176 340.037 55.1476C341.529 52.5776 363.476 54.1591 369.442 64.0438C375.408 73.9285 379.243 71.9515 379.243 71.9515C379.243 71.9515 388.406 77.6847 388.406 82.8247C388.406 87.9648 385.636 90.5348 388.406 91.7209C391.176 92.9071 389.045 114.258 376.9 114.851L375.834 126.12C375.834 126.12 343.233 84.8016 317.877 131.457Z" fill="#FF6347"/>
<path opacity="0.1" d="M319.273 68.918C319.273 68.918 316.457 85.4268 321.604 90.9621L319.273 68.918Z" fill="black"/>
<path opacity="0.1" d="M332.48 65.1307C332.48 65.1307 325.294 82.8049 327.042 86.2037L332.48 65.1307Z" fill="black"/>
<path opacity="0.1" d="M338.696 59.4983C338.696 59.4983 333.84 82.5135 336.171 84.3586L338.696 59.4983Z" fill="black"/>
<path opacity="0.1" d="M347.047 65.7134C347.047 65.7134 341.026 80.4742 343.454 82.5135L347.047 65.7134Z" fill="black"/>
<path opacity="0.1" d="M358.409 67.4614C358.409 67.4614 351.32 79.5032 352.777 81.6396L358.409 67.4614Z" fill="black"/>
<path opacity="0.1" d="M372.976 79.2118C372.976 79.2118 365.401 81.2511 366.955 83.6789L372.976 79.2118Z" fill="black"/>
<path opacity="0.1" d="M380.162 91.7391C380.162 91.7391 373.364 95.0409 374.626 96.7889L380.162 91.7391Z" fill="black"/>
<path opacity="0.1" d="M314.681 107.141C314.681 107.141 358.1 89.5048 376.9 114.851C376.9 114.851 354.08 95.4491 314.681 107.141Z" fill="black"/>
<path d="M298.991 252.052L305.041 245.932L322.146 262.84L316.096 268.961L300.365 253.411L298.991 252.052Z" fill="#53526B"/>
<path d="M259.301 212.818C259.301 212.818 285.78 215.071 310.425 242.811L300.153 253.202L259.301 212.818Z" fill="#DFE6F5"/>
<path d="M338.724 262.417C338.724 262.417 313.274 253.139 310.773 250.921C308.272 248.702 293.561 261.61 311.509 279.157C311.509 279.157 333.455 285.409 339.326 279.157C345.197 272.905 338.724 262.417 338.724 262.417Z" fill="#FDC2CC"/>
<path d="M809.825 439.739H804.65V556.175H809.825V439.739Z" fill="#535461"/>
<path d="M842.327 555.821L841.999 561.065L841.542 568.465L841.352 571.553L840.895 578.962L840.697 582.049L840.24 589.449L835.022 673.637C834.798 677.259 833.201 680.659 830.556 683.145C827.912 685.63 824.42 687.014 820.791 687.014H793.683C790.055 687.014 786.563 685.63 783.921 683.144C781.278 680.658 779.683 677.258 779.46 673.637L774.234 589.449L773.777 582.049L773.587 578.962L773.121 571.553L772.931 568.465L772.474 561.065L772.147 555.821C772.085 554.815 772.229 553.806 772.572 552.858C772.915 551.909 773.448 551.041 774.139 550.307C774.829 549.572 775.663 548.987 776.589 548.587C777.515 548.187 778.512 547.981 779.521 547.981H834.961C835.969 547.981 836.967 548.187 837.892 548.588C838.817 548.988 839.65 549.573 840.34 550.308C841.03 551.042 841.563 551.91 841.904 552.859C842.246 553.807 842.39 554.815 842.327 555.821Z" fill="#65617D"/>
<path d="M841.999 561.065L841.542 568.465H772.931L772.474 561.065H841.999Z" fill="#9D9CB5"/>
<path d="M841.352 571.553L840.895 578.962H773.587L773.121 571.553H841.352Z" fill="#9D9CB5"/>
<path d="M840.697 582.049L840.24 589.449H774.234L773.777 582.049H840.697Z" fill="#9D9CB5"/>
<path d="M764.576 483.381C794.696 505.169 807.237 539.25 807.237 539.25C807.237 539.25 770.943 538.006 740.823 516.218C710.703 494.43 698.162 460.349 698.162 460.349C698.162 460.349 734.456 461.593 764.576 483.381Z" fill="#F95D26"/>
<path d="M698.162 460.349C698.162 460.349 735.833 481.26 747.918 498.572C760.003 515.883 807.237 539.25 807.237 539.25" stroke="#535461" stroke-width="2" stroke-miterlimit="10"/>
<path d="M784.017 439.482C800.411 451.341 807.237 469.891 807.237 469.891C807.237 469.891 787.482 469.213 771.088 457.354C754.694 445.495 747.868 426.945 747.868 426.945C747.868 426.945 767.623 427.622 784.017 439.482Z" fill="#F95D26"/>
<path d="M747.868 426.945C747.868 426.945 768.372 438.327 774.95 447.749C781.528 457.172 807.237 469.891 807.237 469.891" stroke="#535461" stroke-width="2" stroke-miterlimit="10"/>
<path d="M831.06 468.947C812.23 489.643 808.247 516.686 808.247 516.686C808.247 516.686 834.793 510.172 853.623 489.475C872.454 468.778 876.437 441.736 876.437 441.736C876.437 441.736 849.89 448.25 831.06 468.947Z" fill="#F95D26"/>
<path d="M876.437 441.736C876.437 441.736 851.909 462.951 845.675 477.568C839.442 492.186 808.247 516.685 808.247 516.685" stroke="#535461" stroke-width="2" stroke-miterlimit="10"/>
</g>
<defs>
<linearGradient id="paint0_linear" x1="352.982" y1="686.845" x2="352.982" y2="51.2844" gradientUnits="userSpaceOnUse">
<stop stop-color="#808080" stop-opacity="0.25"/>
<stop offset="0.53514" stop-color="#808080" stop-opacity="0.12"/>
<stop offset="1" stop-color="#808080" stop-opacity="0.1"/>
</linearGradient>
<clipPath id="clip0">
<rect width="890.069" height="692.728" fill="white"/>
</clipPath>
</defs>
</svg>
